<svg xmlns="http://www.w3.org/2000/svg" id="icon-arrow-left" viewBox="0 0 32 32" width="100%" height="100%">
      <title>arrow-left</title>
      <path d="M 0.704 17.696 l 9.856 9.856 c 0.896 0.896 2.432 0.896 3.328 0 s 0.896 -2.432 0 -3.328 l -5.792 -5.856 h 21.568 c 1.312 0 2.368 -1.056 2.368 -2.368 s -1.056 -2.368 -2.368 -2.368 h -21.568 l 5.824 -5.824 c 0.896 -0.896 0.896 -2.432 0 -3.328 c -0.48 -0.48 -1.088 -0.704 -1.696 -0.704 s -1.216 0.224 -1.696 0.704 l -9.824 9.824 c -0.448 0.448 -0.704 1.056 -0.704 1.696 s 0.224 1.248 0.704 1.696 Z" />
    </svg>